<svg width="27" height="28" viewBox="0 0 27 28" fill="none" xmlns="http://www.w3.org/2000/svg">
<path fill-rule="evenodd" clip-rule="evenodd" d="M16.7021 15.0252C17.673 14.5174 18.7524 14.252 19.8481 14.2517C21.6465 14.2529 23.371 14.9669 24.6439 16.2373C25.9168 17.5078 26.6341 19.231 26.6386 21.0293C26.6432 22.8277 25.9347 24.5546 24.6683 25.8315C23.402 27.1084 21.6811 27.8312 19.8827 27.8415C19.8812 27.8416 19.8796 27.8417 19.8781 27.8418C19.876 27.8419 19.8739 27.8421 19.8718 27.8421H1.39412C0.587847 27.8421 0.138672 26.9495 0.138672 26.1097V22.5547C0.138672 19.1568 3.87529 18.1094 6.60148 17.3453L6.6064 17.344C6.65769 17.3296 6.70879 17.3153 6.75963 17.3011C7.12697 17.1984 7.48107 17.0993 7.79963 16.9995L8.30751 15.9551C7.14794 15.0628 6.81232 13.6845 6.71645 13.0233C5.91442 12.8086 5.17717 11.8672 4.88252 10.6191C4.72873 9.9674 4.95086 9.35373 5.43528 9.09194C5.55292 9.02764 5.6823 8.98767 5.81572 8.97442C5.58685 8.16832 5.36586 7.11063 5.3602 6.87984C5.30104 4.52203 6.12508 3.60129 6.72673 2.92903L6.72676 2.92901C6.75834 2.89391 6.78943 2.85905 6.82003 2.82441C7.81754 1.69878 9.2904 1.02856 10.8611 0.985606C12.4377 0.942031 13.9584 1.54091 15.0325 2.62727C16.2294 3.83784 16.2032 5.18814 16.1822 6.2732L16.1821 6.27849C16.1795 6.41258 16.1771 6.53938 16.1771 6.66242C16.1771 6.83831 16.1353 7.53238 16.0694 8.21954C16.0413 8.51323 16.0141 8.75241 15.988 8.94796C16.1453 8.94806 16.3003 8.98567 16.4402 9.05766C16.9448 9.31769 17.1772 9.94513 17.0185 10.619C16.7241 11.865 15.9892 12.8052 15.189 13.0223C15.1 13.6966 14.7741 15.0887 13.5842 15.9802L13.9691 17.0721C14.0645 17.1031 14.1655 17.1351 14.2724 17.168C14.8976 16.2682 15.7312 15.533 16.7021 15.0252ZM7.41392 3.35019C7.38238 3.38577 7.3504 3.42166 7.31799 3.45785C6.74795 4.0947 6.10193 4.81659 6.15366 6.85967C6.17753 7.07559 6.21538 7.28974 6.26699 7.50076C6.39448 6.89117 6.62352 6.26912 7.02997 5.8328C7.20724 5.63773 7.4242 5.48285 7.66628 5.37856C7.90835 5.27427 8.16994 5.22298 8.43348 5.22814C8.98033 5.22814 9.16842 5.77154 9.33437 6.25098L9.33443 6.25115C9.57355 6.942 9.83897 7.70787 10.8861 7.83287C10.5571 7.44835 10.3774 7.12406 10.5068 6.82374C10.5503 6.72265 10.6947 6.48943 11.0938 6.51776C11.2197 6.52648 11.3436 6.53753 11.4653 6.54841L11.4656 6.54844C12.5143 6.64198 13.1474 6.69844 13.7864 5.2928C13.8174 5.2246 13.8671 5.16657 13.9297 5.12543C13.9923 5.0843 14.0653 5.06173 14.1402 5.06035C14.2151 5.05897 14.2888 5.07883 14.3529 5.11763C14.417 5.15643 14.4688 5.21258 14.5023 5.2796L14.5316 5.3383C14.9009 5.74095 15.1691 6.42959 15.3609 7.14259C15.3754 6.92064 15.3839 6.74617 15.3839 6.66208C15.3839 6.52983 15.3865 6.39752 15.3892 6.25744V6.25742C15.4082 5.27289 15.4298 4.15702 14.4685 3.18473C13.5481 2.2538 12.2415 1.74054 10.8828 1.77828C9.53072 1.81522 8.26637 2.38815 7.41392 3.35019ZM7.35125 12.3874C7.42505 12.4583 7.46886 12.5547 7.47365 12.6569H7.47359C7.4958 12.9803 7.67407 14.636 9.00629 15.4772C9.53191 15.8094 10.1859 15.9778 10.9504 15.9778C11.717 15.9778 12.3725 15.8132 12.8987 15.4886C12.8996 15.488 12.9004 15.4874 12.9013 15.4869C12.9025 15.486 12.9038 15.4852 12.9051 15.4844C14.2565 14.6445 14.4102 12.986 14.4272 12.6617C14.4289 12.5964 14.4469 12.5325 14.4793 12.4759C14.5118 12.4192 14.5578 12.3715 14.6132 12.3369C14.6785 12.2962 14.7542 12.2752 14.8312 12.2764H14.8411C15.4222 12.2764 16.0356 11.3288 16.2464 10.4367C16.3273 10.0931 16.2223 9.83735 16.0768 9.76239C15.9629 9.70385 15.8435 9.78738 15.7652 9.86478C15.7371 9.9312 15.6914 9.9887 15.633 10.0311C15.5747 10.0734 15.5059 10.0991 15.434 10.1053C15.4223 10.1063 15.411 10.1068 15.3996 10.1068C15.3004 10.1067 15.2048 10.0694 15.1317 10.0023C15.0586 9.93511 15.0134 9.84302 15.0048 9.74414C14.9415 9.00836 14.6828 7.15551 14.186 6.22373C13.3998 7.46076 12.4486 7.43027 11.5161 7.3493C11.6881 7.54592 11.8706 7.73304 12.0629 7.90982C12.1181 7.96063 12.1579 8.02609 12.1774 8.09859C12.197 8.17109 12.1956 8.24766 12.1733 8.31938C12.1511 8.3911 12.1089 8.45503 12.0518 8.50374C11.9946 8.55245 11.9248 8.58394 11.8505 8.59455C9.42572 8.94048 8.87857 7.36001 8.5846 6.51073C8.52493 6.33819 8.44538 6.10842 8.38577 6.02235C8.23936 6.02419 8.09491 6.0563 7.96151 6.11667C7.82811 6.17703 7.70864 6.26433 7.6106 6.3731C6.91743 7.1159 6.87488 8.85752 6.91704 9.46592C6.92254 9.54419 6.90461 9.62233 6.86553 9.69037C6.85656 9.76513 6.82651 9.83579 6.77887 9.89409C6.73124 9.9524 6.66799 9.99595 6.59652 10.0196C6.52506 10.0433 6.44832 10.0462 6.37529 10.0279C6.30225 10.0096 6.23594 9.97088 6.18409 9.91629C6.12232 9.85118 5.96236 9.70867 5.81237 9.78959C5.67972 9.86132 5.57371 10.0944 5.65445 10.4366C5.86541 11.3286 6.4788 12.2762 7.05972 12.2762H7.077C7.17929 12.2768 7.27745 12.3166 7.35125 12.3874ZM8.98833 16.3692L8.43869 17.4993H8.43863C8.41532 17.5472 8.38259 17.59 8.34239 17.625C8.30219 17.66 8.25535 17.6865 8.20467 17.703C8.11151 17.7332 8.01615 17.7632 7.91885 17.793C7.99869 18.1614 8.23549 18.6617 8.6539 19.1105C8.94519 19.4286 9.30027 19.6818 9.69599 19.8535C10.0917 20.0251 10.5192 20.1114 10.9505 20.1068C12.2287 20.1068 12.999 19.4418 13.3661 19.0071C13.4905 18.6127 13.6509 18.2307 13.8453 17.8657C13.7349 17.8306 13.6303 17.7962 13.5315 17.7625C13.4747 17.7431 13.4231 17.7111 13.3804 17.6689C13.3378 17.6267 13.3053 17.5754 13.2854 17.5188L12.8873 16.3896C12.3241 16.6426 11.6751 16.771 10.9505 16.771C10.2152 16.771 9.55752 16.6358 8.98833 16.3692ZM0.931967 22.5547V26.1097C0.931967 26.544 1.14162 27.0488 1.39412 27.0488H16.6651C15.4605 26.4101 14.4759 25.4238 13.8391 24.2183C13.2024 23.0127 12.9429 21.6434 13.0944 20.2884C12.4539 20.6969 11.7081 20.9094 10.9484 20.8998C8.73187 20.8998 7.43897 19.2213 7.15197 18.0157C7.09423 18.0319 7.03508 18.0483 6.97558 18.0647C6.92388 18.079 6.87192 18.0934 6.82037 18.1078L6.81478 18.1094C4.19541 18.8436 0.931967 19.7582 0.931967 22.5547ZM16.5137 26.0373C17.5006 26.6968 18.661 27.0488 19.8481 27.0488C21.4393 27.047 22.9649 26.4141 24.0901 25.2889C25.2153 24.1637 25.8482 22.6381 25.85 21.0469C25.85 19.8598 25.498 18.6995 24.8385 17.7125C24.179 16.7255 23.2416 15.9562 22.1449 15.502C21.0482 15.0477 19.8415 14.9288 18.6772 15.1604C17.513 15.392 16.4436 15.9636 15.6042 16.803C14.7648 17.6424 14.1932 18.7118 13.9616 19.876C13.73 21.0403 13.8489 22.247 14.3031 23.3437C14.7574 24.4404 15.5267 25.3778 16.5137 26.0373ZM21.0477 19.8525H22.8184C22.8846 19.8528 22.9501 19.8664 23.011 19.8923C23.0719 19.9182 23.1271 19.956 23.1732 20.0035C23.2194 20.051 23.2556 20.1072 23.2798 20.1688C23.304 20.2304 23.3157 20.2963 23.3142 20.3625V21.9491C23.3157 22.0153 23.304 22.0811 23.2798 22.1427C23.2556 22.2043 23.2194 22.2605 23.1732 22.308C23.1271 22.3555 23.0719 22.3933 23.011 22.4192C22.9501 22.4451 22.8846 22.4587 22.8184 22.459H21.0477V24.2723C21.0492 24.3385 21.0375 24.4043 21.0133 24.4659C20.9891 24.5276 20.9528 24.5838 20.9067 24.6312C20.8605 24.6787 20.8053 24.7165 20.7444 24.7424C20.6835 24.7684 20.618 24.7819 20.5518 24.7823H18.9652C18.8285 24.7826 18.6971 24.7295 18.5992 24.6341C18.5012 24.5388 18.4445 24.4089 18.4411 24.2723V22.459H16.642C16.5053 22.4594 16.3739 22.4062 16.276 22.3109C16.178 22.2156 16.1213 22.0857 16.1179 21.9491V20.3625C16.1213 20.2258 16.178 20.0959 16.276 20.0006C16.3739 19.9053 16.5053 19.8521 16.642 19.8525H18.4411V18.0959C18.4445 17.9593 18.5012 17.8294 18.5992 17.7341C18.6971 17.6387 18.8285 17.5856 18.9652 17.5859H20.5518C20.618 17.5863 20.6835 17.5998 20.7444 17.6257C20.8053 17.6517 20.8605 17.6895 20.9067 17.737C20.9528 17.7844 20.9891 17.8406 21.0133 17.9022C21.0375 17.9639 21.0492 18.0297 21.0477 18.0959V19.8525ZM20.7785 21.6657H22.5209V20.6458H20.7785C20.6418 20.6462 20.5104 20.593 20.4124 20.4977C20.3145 20.4023 20.2577 20.2724 20.2544 20.1358V18.3792H19.2344V20.1358C19.2359 20.202 19.2242 20.2678 19.2 20.3295C19.1758 20.3911 19.1396 20.4473 19.0934 20.4948C19.0473 20.5422 18.9921 20.58 18.9312 20.606C18.8702 20.6319 18.8048 20.6454 18.7386 20.6458H16.9112V21.6657H18.7386C18.8048 21.6661 18.8702 21.6796 18.9312 21.7056C18.9921 21.7315 19.0473 21.7693 19.0934 21.8168C19.1396 21.8642 19.1758 21.9204 19.2 21.9821C19.2242 22.0437 19.2359 22.1095 19.2344 22.1757V23.989H20.2544V22.1757C20.2577 22.0391 20.3145 21.9092 20.4124 21.8139C20.5104 21.7185 20.6418 21.6654 20.7785 21.6657Z" fill="black"/>
</svg>